<svg xmlns="http://www.w3.org/2000/svg" viewBox="0 0 100 100" width="100" height="100">
  <defs>
    <linearGradient id="grad" x1="0%" y1="0%" x2="100%" y2="100%">
      <stop offset="0%" style="stop-color:#a29bfe;stop-opacity:1" />
      <stop offset="100%" style="stop-color:#6c5ce7;stop-opacity:1" />
    </linearGradient>
  </defs>

  <!-- 背景 -->
  <circle cx="50" cy="50" r="48" fill="#FFF5F7"/>

  <!-- 可爱猫咪简化版 -->
  <g id="simple-cute-cat">
    <!-- 身体 -->
    <ellipse cx="50" cy="55" rx="18" ry="22" fill="url(#grad)"/>

    <!-- 小尾巴 -->
    <path d="M 65 55 Q 75 52, 80 58" 
          fill="none" 
          stroke="url(#grad)" 
          stroke-width="7" 
          stroke-linecap="round"/>

    <!-- 头 -->
    <circle cx="50" cy="38" r="20" fill="url(#grad)"/>

    <!-- 左耳 -->
    <path d="M 35 28 Q 30 18, 38 25 Z" fill="url(#grad)"/>
    <ellipse cx="36" cy="25" rx="3" ry="5" fill="#FFB6C1" opacity="0.7"/>

    <!-- 右耳 -->
    <path d="M 65 28 Q 70 18, 62 25 Z" fill="url(#grad)"/>
    <ellipse cx="64" cy="25" rx="3" ry="5" fill="#FFB6C1" opacity="0.7"/>

    <!-- 大眼睛（左） -->
    <circle cx="44" cy="36" r="5" fill="#FFFFFF"/>
    <circle cx="45" cy="36" r="4" fill="#2d3436"/>
    <circle cx="46" cy="34" r="1.5" fill="#FFFFFF"/>

    <!-- 大眼睛（右） -->
    <circle cx="56" cy="36" r="5" fill="#FFFFFF"/>
    <circle cx="57" cy="36" r="4" fill="#2d3436"/>
    <circle cx="58" cy="34" r="1.5" fill="#FFFFFF"/>

    <!-- 小鼻子 -->
    <ellipse cx="50" cy="42" rx="2" ry="1.5" fill="#FF6B9D"/>

    <!-- W型嘴巴 -->
    <path d="M 46 44 Q 48 46, 50 45 Q 52 46, 54 44" 
          fill="none" 
          stroke="#FF6B9D" 
          stroke-width="1.5" 
          stroke-linecap="round"/>

    <!-- 腮红 -->
    <ellipse cx="38" cy="42" rx="4" ry="2.5" fill="#FF6B9D" opacity="0.3"/>
    <ellipse cx="62" cy="42" rx="4" ry="2.5" fill="#FF6B9D" opacity="0.3"/>

    <!-- 小爪子 -->
    <ellipse cx="42" cy="72" rx="4" ry="5" fill="#FF6B9D" opacity="0.8"/>
    <ellipse cx="58" cy="72" rx="4" ry="5" fill="#FF6B9D" opacity="0.8"/>
  </g>

  <!-- 闪电 -->
  <path d="M 72 36 L 69 42 L 72 42 L 67 50 L 74 44 L 71 44 Z" 
        fill="#FFD700" 
        opacity="0.9"/>

  <!-- 小星星 -->
  <circle cx="20" cy="25" r="2" fill="#FFD700" opacity="0.7"/>
  <circle cx="78" cy="30" r="1.5" fill="#FFD700" opacity="0.7"/>
</svg>
