<svg xmlns="http://www.w3.org/2000/svg" viewBox="0 0 64 64" width="64" height="64">
  <!-- 单色版本，适合 favicon -->
  <rect width="64" height="64" fill="#512BD4" rx="12"/>
  
  <g fill="#FFFFFF">
    <!-- 猫头 -->
    <circle cx="32" cy="24" r="8"/>
    
    <!-- 左耳 -->
    <path d="M 26 18 L 22 10 L 28 16 Z"/>
    
    <!-- 右耳 -->
    <path d="M 38 18 L 42 10 L 36 16 Z"/>
    
    <!-- 猫身体（流线型） -->
    <path d="M 24 30 Q 20 35, 22 42 Q 25 48, 32 46 Q 39 44, 42 38 Q 44 32, 40 28 Z"/>
    
    <!-- 尾巴 -->
    <path d="M 40 38 Q 46 40, 52 34" 
          fill="none" 
          stroke="#FFFFFF" 
          stroke-width="3" 
          stroke-linecap="round"/>
    
    <!-- 速度线条 -->
    <path d="M 8 20 L 16 20" stroke="#FFFFFF" stroke-width="2" stroke-linecap="round" opacity="0.6"/>
    <path d="M 6 26 L 18 26" stroke="#FFFFFF" stroke-width="1.5" stroke-linecap="round" opacity="0.5"/>
    <path d="M 10 32 L 20 32" stroke="#FFFFFF" stroke-width="1.5" stroke-linecap="round" opacity="0.4"/>
    
    <!-- 闪电 -->
    <path d="M 46 26 L 43 30 L 46 30 L 42 36 L 47 32 L 44 32 Z" opacity="0.9"/>
  </g>
</svg>

