<svg xmlns="http://www.w3.org/2000/svg" viewBox="0 0 64 64" width="64" height="64">
  <defs>
    <linearGradient id="bg" x1="0%" y1="0%" x2="100%" y2="100%">
      <stop offset="0%" style="stop-color:#a29bfe;stop-opacity:1" />
      <stop offset="100%" style="stop-color:#6c5ce7;stop-opacity:1" />
    </linearGradient>
  </defs>

  <!-- 圆角背景 -->
  <rect width="64" height="64" fill="url(#bg)" rx="14"/>
  
  <!-- 可爱猫咪 - 单色版 -->
  <g fill="#FFFFFF">
    <!-- 身体 -->
    <ellipse cx="32" cy="38" rx="14" ry="16"/>

    <!-- 尾巴 -->
    <path d="M 44 38 Q 52 35, 56 40" 
          fill="none" 
          stroke="#FFFFFF" 
          stroke-width="5" 
          stroke-linecap="round"/>

    <!-- 头 -->
    <circle cx="32" cy="24" r="13"/>

    <!-- 左耳 -->
    <path d="M 22 16 Q 18 8, 25 14 Z"/>
    <!-- 右耳 -->
    <path d="M 42 16 Q 46 8, 39 14 Z"/>

    <!-- 大眼睛（左）- 简化 -->
    <circle cx="28" cy="23" r="3" fill="#6c5ce7"/>
    <circle cx="29" cy="22" r="1" fill="#FFFFFF"/>

    <!-- 大眼睛（右）- 简化 -->
    <circle cx="36" cy="23" r="3" fill="#6c5ce7"/>
    <circle cx="37" cy="22" r="1" fill="#FFFFFF"/>

    <!-- 小鼻子 -->
    <ellipse cx="32" cy="27" rx="1.5" ry="1"/>

    <!-- W型嘴巴 -->
    <path d="M 29 29 Q 30.5 30.5, 32 29.5 Q 33.5 30.5, 35 29" 
          fill="none" 
          stroke="#FFFFFF" 
          stroke-width="1.2" 
          stroke-linecap="round"/>

    <!-- 小爪子 -->
    <ellipse cx="26" cy="50" rx="3" ry="4" opacity="0.8"/>
    <ellipse cx="38" cy="50" rx="3" ry="4" opacity="0.8"/>

    <!-- 闪电 -->
    <path d="M 48 24 L 45 28 L 48 28 L 44 34 L 50 30 L 47 30 Z" opacity="0.9"/>
  </g>
</svg>
